<svg width="512" height="576" viewBox="0 0 512 576" fill="none" xmlns="http://www.w3.org/2000/svg">
<g id="lockup-stacked-dark" clip-path="url(#clip0_0_1)">
<g id="mark-full">
<rect id="plane-source" x="74.1255" y="255.162" width="148" height="148" stroke="#E8EAED" stroke-width="6"/>
<path id="curve-source" d="M94.8457 269.962C97.8057 288.991 100.766 300.598 103.726 309.922C108.166 323.908 112.606 332.206 117.046 338.859C124.175 349.539 131.303 355.486 138.432 360.244C147.583 366.351 156.735 370.085 165.886 373.085C179.699 377.612 193.513 380.293 207.326 382.442" stroke="#E8EAED" stroke-width="7"/>
<path id="price-tangent" d="M74.1255 274.555L159.964 403.162" stroke="#E8EAED" stroke-width="5"/>
<rect id="plane-target" x="322.125" y="3.16162" width="148" height="148" stroke="#E8EAED" stroke-width="6"/>
<path id="axis-Y" d="M38.874 316.934H43.933L49.982 327.873H50.2235L56.2725 316.934H61.3314L52.3364 332.437V341.662H47.8691V332.437L38.874 316.934Z" fill="#E8EAED"/>
<path id="axis-X" d="M142.307 410.934L147.752 419.99H147.946L153.415 410.934H158.522L150.904 423.298L158.643 435.662H153.451L147.946 426.667H147.752L142.247 435.662H137.079L144.891 423.298L137.176 410.934H142.307Z" fill="#E8EAED"/>
<g id="axis-sigma2">
<path d="M276.702 80.8718V80.4855C276.702 78.8193 277.032 77.3261 277.692 76.0061C278.36 74.6779 279.326 73.6275 280.59 72.8548C281.862 72.0821 283.399 71.6957 285.202 71.6957C285.492 71.8084 285.766 72.0217 286.023 72.3356C286.289 72.6415 286.611 72.9715 286.989 73.3257C287.367 73.6718 287.874 73.9535 288.51 74.1708C289.428 74.4928 290.269 74.9959 291.034 75.6801C291.799 76.3643 292.41 77.1812 292.869 78.1311C293.328 79.0728 293.557 80.0991 293.557 81.2099V81.548C293.557 83.0854 293.231 84.494 292.579 85.7738C291.935 87.0536 290.994 88.0799 289.754 88.8527C288.514 89.6173 287.013 89.9997 285.25 89.9997C283.431 89.9997 281.886 89.6012 280.614 88.8044C279.342 87.9994 278.372 86.9088 277.704 85.5323C277.036 84.1559 276.702 82.6024 276.702 80.8718ZM281.218 80.4855V80.8718C281.218 81.886 281.347 82.8117 281.604 83.6488C281.87 84.4859 282.296 85.158 282.884 85.6652C283.48 86.1642 284.268 86.4137 285.25 86.4137C286.176 86.4137 286.917 86.1642 287.472 85.6652C288.027 85.158 288.43 84.4859 288.679 83.6488C288.929 82.8117 289.05 81.886 289.042 80.8718V80.4855C289.05 79.5518 288.929 78.6905 288.679 77.9017C288.43 77.1128 288.023 76.481 287.46 76.0061C286.897 75.5231 286.144 75.2816 285.202 75.2816C284.244 75.2816 283.472 75.5231 282.884 76.0061C282.304 76.481 281.882 77.1128 281.616 77.9017C281.351 78.6905 281.218 79.5518 281.218 80.4855ZM294.897 71.6957V75.2816H285.202V71.6957H294.897Z" fill="#E8EAED"/>
<path d="M298.529 77.298V74.8953L304.336 70.0778C304.819 69.6753 305.234 69.3091 305.58 68.9791C305.926 68.641 306.192 68.311 306.377 67.989C306.562 67.659 306.654 67.3008 306.654 66.9144C306.654 66.2866 306.405 65.7956 305.906 65.4414C305.407 65.0873 304.795 64.9102 304.071 64.9102C303.298 64.9102 302.674 65.1074 302.199 65.5018C301.732 65.8882 301.499 66.4275 301.499 67.1197H298.299C298.299 65.6225 298.843 64.4433 299.929 63.5821C301.024 62.7127 302.42 62.2781 304.119 62.2781C305.27 62.2781 306.272 62.4833 307.125 62.8938C307.987 63.2963 308.655 63.8437 309.13 64.5359C309.604 65.2281 309.842 66.0049 309.842 66.8661C309.842 67.5584 309.701 68.2023 309.419 68.798C309.138 69.3856 308.699 69.9772 308.103 70.5728C307.508 71.1604 306.747 71.7963 305.821 72.4805L303.334 74.4606V74.5693H310.108V77.298H298.529Z" fill="#E8EAED"/>
</g>
<path id="axis-K" d="M386.564 191.662V166.934H391.044V178.296H391.346L400.993 166.934H406.462L396.9 178.03L406.547 191.662H401.162L393.785 181.061L391.044 184.297V191.662H386.564Z" fill="#E8EAED"/>
<path id="ratio-src-num" d="M171.786 277.344H176.25L181.587 286.995H181.8L187.138 277.344H191.601L183.665 291.022V299.162H179.723V291.022L171.786 277.344Z" fill="#E8EAED"/>
<rect id="ratio-src-bar" x="164.125" y="306.662" width="36" height="5" fill="#E8EAED"/>
<path id="ratio-src-den" d="M177.08 319.344L181.885 327.334H182.055L186.881 319.344H191.388L184.665 330.253L191.494 341.162H186.913L182.055 333.225H181.885L177.027 341.162H172.467L179.36 330.253L172.553 319.344H177.08Z" fill="#E8EAED"/>
<g id="ratio-tgt-num">
<path d="M415.458 39.406V39.0651C415.458 37.5949 415.749 36.2775 416.332 35.1127C416.921 33.9408 417.773 33.014 418.888 32.3321C420.011 31.6503 421.367 31.3094 422.958 31.3094C423.214 31.4088 423.455 31.5971 423.682 31.874C423.917 32.1439 424.201 32.4351 424.535 32.7476C424.869 33.053 425.316 33.3016 425.877 33.4934C426.687 33.7775 427.429 34.2213 428.104 34.825C428.778 35.4287 429.318 36.1496 429.723 36.9877C430.128 37.8186 430.33 38.7242 430.33 39.7043V40.0026C430.33 41.3591 430.043 42.602 429.467 43.7313C428.899 44.8606 428.068 45.7661 426.974 46.4479C425.881 47.1226 424.556 47.46 423.001 47.46C421.396 47.46 420.032 47.1084 418.91 46.4053C417.788 45.6951 416.932 44.7327 416.342 43.5182C415.753 42.3037 415.458 40.933 415.458 39.406ZM419.442 39.0651V39.406C419.442 40.3009 419.556 41.1177 419.783 41.8563C420.018 42.5949 420.394 43.188 420.913 43.6354C421.438 44.0758 422.134 44.2959 423.001 44.2959C423.817 44.2959 424.471 44.0758 424.961 43.6354C425.451 43.188 425.806 42.5949 426.026 41.8563C426.246 41.1177 426.353 40.3009 426.346 39.406V39.0651C426.353 38.2412 426.246 37.4813 426.026 36.7853C425.806 36.0892 425.447 35.5317 424.95 35.1127C424.453 34.6865 423.789 34.4735 422.958 34.4735C422.113 34.4735 421.431 34.6865 420.913 35.1127C420.401 35.5317 420.028 36.0892 419.794 36.7853C419.56 37.4813 419.442 38.2412 419.442 39.0651ZM431.513 31.3094V34.4735H422.958V31.3094H431.513Z" fill="#E8EAED"/>
<path d="M434.717 36.2526V34.1326L439.841 29.8819C440.267 29.5267 440.633 29.2036 440.938 28.9124C441.244 28.6141 441.478 28.3229 441.641 28.0388C441.805 27.7476 441.886 27.4316 441.886 27.0907C441.886 26.5367 441.666 26.1034 441.226 25.7909C440.786 25.4784 440.246 25.3222 439.607 25.3222C438.925 25.3222 438.374 25.4962 437.955 25.8442C437.543 26.1851 437.337 26.661 437.337 27.2718H434.514C434.514 25.9508 434.994 24.9103 435.953 24.1503C436.918 23.3833 438.151 22.9998 439.649 22.9998C440.665 22.9998 441.549 23.1809 442.302 23.5431C443.062 23.8982 443.651 24.3811 444.07 24.9919C444.489 25.6027 444.699 26.2881 444.699 27.0481C444.699 27.6588 444.575 28.227 444.326 28.7526C444.078 29.2711 443.69 29.7931 443.165 30.3186C442.639 30.8371 441.968 31.3982 441.151 32.0019L438.957 33.749V33.8449H444.933V36.2526H434.717Z" fill="#E8EAED"/>
</g>
<rect id="ratio-tgt-bar" x="408.125" y="54.6616" width="44" height="5" fill="#E8EAED"/>
<path id="ratio-tgt-den" d="M421.777 89.1617V67.3435H425.73V77.3684H425.996L434.508 67.3435H439.334L430.897 77.134L439.409 89.1617H434.657L428.148 79.808L425.73 82.6631V89.1617H421.777Z" fill="#E8EAED"/>
<path id="curve-target" d="M342.846 17.9617C345.806 36.9907 348.766 48.5977 351.726 57.9217C356.166 71.9077 360.606 80.2057 365.046 86.8587C372.175 97.5387 379.303 103.486 386.432 108.244C395.583 114.351 404.735 118.085 413.886 121.085C427.699 125.612 441.513 128.293 455.326 130.442" stroke="#E8EAED" stroke-width="7"/>
<path id="morphism-arc" d="M234.125 245.162C239.152 233.735 244.587 224.63 250.274 216.957M278.16 188.427C284.026 183.697 289.986 179.5 296.011 175.667" stroke="#1B9E5A" stroke-width="8" stroke-linecap="round"/>
<path id="arrowhead" d="M314.125 165.162L298.146 186.178L287.774 166.776L314.125 165.162Z" fill="#1B9E5A"/>
<g id="arc-sigma2">
<path d="M246.663 206.535V206.148C246.663 204.482 246.993 202.989 247.653 201.669C248.321 200.341 249.287 199.29 250.55 198.518C251.822 197.745 253.36 197.359 255.163 197.359C255.452 197.471 255.726 197.685 255.984 197.998C256.249 198.304 256.571 198.634 256.95 198.989C257.328 199.335 257.835 199.616 258.471 199.834C259.388 200.156 260.23 200.659 260.994 201.343C261.759 202.027 262.371 202.844 262.83 203.794C263.288 204.736 263.518 205.762 263.518 206.873V207.211C263.518 208.748 263.192 210.157 262.54 211.437C261.896 212.716 260.954 213.743 259.714 214.515C258.475 215.28 256.974 215.663 255.211 215.663C253.392 215.663 251.846 215.264 250.575 214.467C249.303 213.662 248.333 212.572 247.665 211.195C246.997 209.819 246.663 208.265 246.663 206.535ZM251.178 206.148V206.535C251.178 207.549 251.307 208.475 251.565 209.312C251.83 210.149 252.257 210.821 252.844 211.328C253.44 211.827 254.229 212.077 255.211 212.077C256.137 212.077 256.877 211.827 257.432 211.328C257.988 210.821 258.39 210.149 258.64 209.312C258.889 208.475 259.01 207.549 259.002 206.535V206.148C259.01 205.215 258.889 204.353 258.64 203.564C258.39 202.776 257.984 202.144 257.42 201.669C256.857 201.186 256.104 200.944 255.163 200.944C254.205 200.944 253.432 201.186 252.844 201.669C252.265 202.144 251.842 202.776 251.577 203.564C251.311 204.353 251.178 205.215 251.178 206.148ZM264.858 197.359V200.944H255.163V197.359H264.858Z" fill="#E8EAED"/>
<path d="M268.489 202.961V200.558L274.297 195.741C274.78 195.338 275.194 194.972 275.54 194.642C275.886 194.304 276.152 193.974 276.337 193.652C276.522 193.322 276.615 192.964 276.615 192.577C276.615 191.949 276.365 191.458 275.866 191.104C275.367 190.75 274.755 190.573 274.031 190.573C273.258 190.573 272.634 190.77 272.16 191.165C271.693 191.551 271.459 192.09 271.459 192.783H268.26C268.26 191.285 268.803 190.106 269.89 189.245C270.984 188.376 272.381 187.941 274.079 187.941C275.23 187.941 276.232 188.146 277.086 188.557C277.947 188.959 278.615 189.506 279.09 190.199C279.565 190.891 279.802 191.668 279.802 192.529C279.802 193.221 279.661 193.865 279.38 194.461C279.098 195.048 278.659 195.64 278.064 196.236C277.468 196.823 276.707 197.459 275.782 198.143L273.295 200.123V200.232H280.068V202.961H268.489Z" fill="#E8EAED"/>
</g>
</g>
<g id="wordmark">
<path d="M11.8144 575.838C9.49787 575.838 7.47094 575.386 5.73357 574.481C3.9962 573.576 2.63888 572.291 1.66161 570.626C0.720538 568.925 0.25 566.916 0.25 564.6V556.13C0.25 553.814 0.720538 551.823 1.66161 550.158C2.63888 548.457 3.9962 547.154 5.73357 546.249C7.47094 545.344 9.49787 544.891 11.8144 544.891C15.2167 544.891 17.9495 545.814 20.0126 547.66C22.0757 549.506 23.1435 552.022 23.2159 555.207H18.9267C18.8543 553.144 18.1847 551.551 16.9179 550.429C15.6872 549.307 13.9861 548.746 11.8144 548.746C9.60646 548.746 7.85099 549.398 6.54796 550.701C5.24494 551.968 4.59342 553.777 4.59342 556.13V564.6C4.59342 566.916 5.24494 568.726 6.54796 570.029C7.85099 571.332 9.60646 571.983 11.8144 571.983C13.9861 571.983 15.6872 571.422 16.9179 570.3C18.1847 569.142 18.8543 567.55 18.9267 565.523H23.2159C23.1435 568.708 22.0757 571.223 20.0126 573.069C17.9495 574.915 15.2167 575.838 11.8144 575.838Z" fill="#E8EAED"/>
<path d="M40.134 575.295V552.33H31.3386V548.42H40.134V543.045C40.134 540.765 40.8398 538.973 42.2514 537.67C43.6992 536.331 45.6719 535.662 48.1693 535.662H56.8019V539.571H48.1693C46.9749 539.571 46.0519 539.878 45.4004 540.494C44.7851 541.073 44.4774 541.923 44.4774 543.045V548.42H56.8019V552.33H44.4774V575.295H40.134Z" fill="#E8EAED"/>
<path d="M64.2188 575.295V545.434H68.0193V549.126H68.8337L68.2365 550.321C68.2365 548.656 68.6708 547.335 69.5395 546.357C70.4444 545.38 71.675 544.891 73.2314 544.891C74.8602 544.891 76.127 545.471 77.0319 546.629C77.973 547.787 78.4616 549.416 78.4978 551.515L77.3576 549.126H79.1493L78.3892 550.321C78.3892 548.656 78.8416 547.335 79.7465 546.357C80.6514 545.38 81.882 544.891 83.4384 544.891C85.2844 544.891 86.7141 545.579 87.7276 546.955C88.7772 548.33 89.302 550.158 89.302 552.438V575.295H85.2844V552.438C85.2844 551.135 84.9948 550.122 84.4157 549.398C83.8366 548.638 83.0222 548.258 81.9725 548.258C80.9229 548.258 80.0904 548.638 79.4751 549.398C78.8597 550.122 78.5521 551.135 78.5521 552.438V575.295H74.9688V552.438C74.9688 551.099 74.6611 550.067 74.0458 549.343C73.4667 548.62 72.6523 548.258 71.6026 548.258C70.5529 548.258 69.7385 548.62 69.1594 549.343C68.5803 550.067 68.2726 551.099 68.2365 552.438V575.295H64.2188Z" fill="#E8EAED"/>
<path d="M96.7732 575.295V545.434H100.574V549.126H101.388L100.791 550.321C100.791 548.656 101.225 547.335 102.094 546.357C102.999 545.38 104.229 544.891 105.786 544.891C107.415 544.891 108.681 545.471 109.586 546.629C110.527 547.787 111.016 549.416 111.052 551.515L109.912 549.126H111.704L110.944 550.321C110.944 548.656 111.396 547.335 112.301 546.357C113.206 545.38 114.437 544.891 115.993 544.891C117.839 544.891 119.269 545.579 120.282 546.955C121.332 548.33 121.857 550.158 121.857 552.438V575.295H117.839V552.438C117.839 551.135 117.549 550.122 116.97 549.398C116.391 548.638 115.577 548.258 114.527 548.258C113.477 548.258 112.645 548.638 112.03 549.398C111.414 550.122 111.107 551.135 111.107 552.438V575.295H107.523V552.438C107.523 551.099 107.216 550.067 106.6 549.343C106.021 548.62 105.207 548.258 104.157 548.258C103.107 548.258 102.293 548.62 101.714 549.343C101.135 550.067 100.827 551.099 100.791 552.438V575.295H96.7732Z" fill="#E8EAED"/>
<path d="M133.182 559.279V555.478H150.556V559.279H133.182Z" fill="#E8EAED"/>
<path d="M171.546 575.295L161.448 545.434H165.846L172.741 566.12C173.103 567.242 173.447 568.364 173.772 569.486C174.098 570.572 174.351 571.422 174.532 572.038C174.713 571.422 174.967 570.572 175.292 569.486C175.618 568.364 175.962 567.242 176.324 566.12L183.056 545.434H187.4L177.301 575.295H171.546Z" fill="#E8EAED"/>
<path d="M206.978 575.784C204.662 575.784 202.653 575.332 200.952 574.427C199.251 573.522 197.929 572.219 196.988 570.518C196.047 568.816 195.577 566.808 195.577 564.491V556.239C195.577 553.886 196.047 551.877 196.988 550.212C197.929 548.511 199.251 547.208 200.952 546.303C202.653 545.398 204.662 544.946 206.978 544.946C209.295 544.946 211.304 545.398 213.005 546.303C214.706 547.208 216.027 548.511 216.968 550.212C217.909 551.877 218.38 553.868 218.38 556.184V564.491C218.38 566.808 217.909 568.816 216.968 570.518C216.027 572.219 214.706 573.522 213.005 574.427C211.304 575.332 209.295 575.784 206.978 575.784ZM206.978 571.929C209.222 571.929 210.96 571.296 212.19 570.029C213.421 568.762 214.036 566.916 214.036 564.491V556.239C214.036 553.814 213.403 551.968 212.136 550.701C210.905 549.434 209.186 548.8 206.978 548.8C204.77 548.8 203.033 549.434 201.766 550.701C200.536 551.968 199.92 553.814 199.92 556.239V564.491C199.92 566.916 200.536 568.762 201.766 570.029C203.033 571.296 204.77 571.929 206.978 571.929Z" fill="#E8EAED"/>
<path d="M243.442 575.295C241.741 575.295 240.257 574.97 238.99 574.318C237.759 573.667 236.8 572.726 236.112 571.495C235.425 570.264 235.081 568.816 235.081 567.151V539.571H225.145V535.662H239.37V567.151C239.37 568.491 239.732 569.54 240.456 570.3C241.18 571.024 242.175 571.386 243.442 571.386H252.943V575.295H243.442Z" fill="#E8EAED"/>
<path d="M263.4 559.279V555.478H280.774V559.279H263.4Z" fill="#E8EAED"/>
<path d="M292.1 575.295V545.434H295.901V549.126H296.715L296.118 550.321C296.118 548.656 296.552 547.335 297.421 546.357C298.326 545.38 299.556 544.891 301.113 544.891C302.741 544.891 304.008 545.471 304.913 546.629C305.854 547.787 306.343 549.416 306.379 551.515L305.239 549.126H307.031L306.27 550.321C306.27 548.656 306.723 547.335 307.628 546.357C308.533 545.38 309.763 544.891 311.32 544.891C313.166 544.891 314.595 545.579 315.609 546.955C316.658 548.33 317.183 550.158 317.183 552.438V575.295H313.166V552.438C313.166 551.135 312.876 550.122 312.297 549.398C311.718 548.638 310.903 548.258 309.854 548.258C308.804 548.258 307.972 548.638 307.356 549.398C306.741 550.122 306.433 551.135 306.433 552.438V575.295H302.85V552.438C302.85 551.099 302.542 550.067 301.927 549.343C301.348 548.62 300.534 548.258 299.484 548.258C298.434 548.258 297.62 548.62 297.041 549.343C296.462 550.067 296.154 551.099 296.118 552.438V575.295H292.1Z" fill="#E8EAED"/>
<path d="M334.862 575.838C331.713 575.838 329.233 575.042 327.423 573.449C325.614 571.821 324.709 569.631 324.709 566.88C324.709 564.165 325.596 562.03 327.369 560.473C329.143 558.881 331.532 558.085 334.536 558.085H344.037V554.936C344.037 552.945 343.458 551.407 342.3 550.321C341.141 549.235 339.495 548.692 337.359 548.692C335.477 548.692 333.902 549.108 332.636 549.941C331.405 550.773 330.699 551.895 330.518 553.307H326.175C326.537 550.737 327.731 548.692 329.758 547.172C331.821 545.651 334.391 544.891 337.468 544.891C340.798 544.891 343.44 545.796 345.394 547.606C347.349 549.38 348.326 551.787 348.326 554.827V575.295H344.091V569.486H343.386L344.2 568.617C344.2 570.825 343.349 572.581 341.648 573.884C339.947 575.187 337.685 575.838 334.862 575.838ZM335.893 572.364C338.282 572.364 340.237 571.766 341.757 570.572C343.277 569.377 344.037 567.821 344.037 565.903V561.396H334.59C332.889 561.396 331.532 561.867 330.518 562.808C329.505 563.749 328.998 565.034 328.998 566.663C328.998 568.4 329.613 569.794 330.844 570.843C332.074 571.857 333.758 572.364 335.893 572.364Z" fill="#E8EAED"/>
<path d="M359.706 575.295V545.434H363.941V550.972H364.973L363.453 554.393C363.489 551.352 364.231 549.018 365.679 547.389C367.126 545.724 369.208 544.891 371.922 544.891C375.071 544.891 377.569 545.887 379.415 547.878C381.297 549.832 382.238 552.474 382.238 555.804V557.596H377.84V556.13C377.84 553.705 377.243 551.841 376.049 550.538C374.854 549.199 373.153 548.529 370.945 548.529C368.81 548.529 367.126 549.199 365.896 550.538C364.665 551.877 364.05 553.741 364.05 556.13V575.295H359.706Z" fill="#E8EAED"/>
<path d="M391.447 575.295V535.662H395.736V557.976H401.871L410.72 545.434H415.715L405.671 559.659L415.878 575.295H410.829L401.925 561.722H395.736V575.295H391.447Z" fill="#E8EAED"/>
<path d="M434.86 575.838C432.543 575.838 430.534 575.386 428.833 574.481C427.132 573.54 425.811 572.219 424.87 570.518C423.929 568.816 423.458 566.844 423.458 564.6V556.13C423.458 553.85 423.929 551.877 424.87 550.212C425.811 548.511 427.132 547.208 428.833 546.303C430.534 545.362 432.543 544.891 434.86 544.891C437.176 544.891 439.185 545.362 440.886 546.303C442.587 547.208 443.908 548.511 444.849 550.212C445.79 551.877 446.261 553.85 446.261 556.13V561.396H427.693V564.6C427.693 567.025 428.308 568.907 429.539 570.246C430.806 571.549 432.579 572.201 434.86 572.201C436.778 572.201 438.334 571.821 439.529 571.061C440.759 570.3 441.538 569.196 441.863 567.749H446.152C445.754 570.246 444.542 572.219 442.515 573.667C440.488 575.114 437.936 575.838 434.86 575.838ZM442.026 558.519V556.13C442.026 553.705 441.411 551.841 440.18 550.538C438.95 549.199 437.176 548.529 434.86 548.529C432.579 548.529 430.806 549.199 429.539 550.538C428.308 551.841 427.693 553.705 427.693 556.13V558.03H442.461L442.026 558.519Z" fill="#E8EAED"/>
<path d="M470.672 575.295C468.174 575.295 466.238 574.644 464.862 573.341C463.487 572.002 462.799 570.119 462.799 567.694V549.343H454.329V545.434H462.799V537.019H467.143V545.434H479.141V549.343H467.143V567.694C467.143 570.156 468.319 571.386 470.672 571.386H478.598V575.295H470.672Z" fill="#E8EAED"/>
<path d="M498.883 575.784C496.928 575.784 495.209 575.458 493.725 574.807C492.241 574.155 491.064 573.25 490.196 572.092C489.327 570.898 488.802 569.522 488.621 567.966H492.91C493.164 569.16 493.797 570.119 494.811 570.843C495.86 571.567 497.218 571.929 498.883 571.929H501.543C503.461 571.929 504.909 571.513 505.886 570.68C506.9 569.812 507.407 568.672 507.407 567.26C507.407 565.921 506.972 564.835 506.104 564.002C505.235 563.17 503.986 562.627 502.357 562.374L497.851 561.668C495.028 561.197 492.892 560.292 491.444 558.953C490.033 557.614 489.327 555.732 489.327 553.307C489.327 550.665 490.178 548.62 491.879 547.172C493.616 545.688 496.114 544.946 499.371 544.946H501.489C504.312 544.946 506.574 545.615 508.275 546.955C510.013 548.294 511.062 550.104 511.424 552.384H507.081C506.864 551.298 506.266 550.429 505.289 549.778C504.348 549.126 503.081 548.8 501.489 548.8H499.371C497.453 548.8 496.023 549.199 495.082 549.995C494.141 550.755 493.671 551.859 493.671 553.307C493.671 554.61 494.069 555.605 494.865 556.293C495.661 556.944 496.874 557.397 498.503 557.65L502.955 558.356C505.923 558.827 508.13 559.768 509.578 561.179C511.026 562.555 511.75 564.491 511.75 566.989C511.75 569.703 510.881 571.857 509.144 573.449C507.407 575.006 504.873 575.784 501.543 575.784H498.883Z" fill="#E8EAED"/>
</g>
</g>
<defs>
<clipPath id="clip0_0_1">
<rect width="512" height="576" fill="white"/>
</clipPath>
</defs>
</svg>
